<?xml version="1.0" encoding="UTF-8" standalone="no"?>
<!DOCTYPE svg PUBLIC "-//W3C//DTD SVG 1.1//EN"
 "http://www.w3.org/Graphics/SVG/1.1/DTD/svg11.dtd">
<!-- Generated by graphviz version 2.43.0 (0)
 -->
<!-- Title: round&#45;table Pages: 1 -->
<svg width="376pt" height="338pt"
 viewBox="0.00 0.00 376.00 338.00" xmlns="http://www.w3.org/2000/svg" xmlns:xlink="http://www.w3.org/1999/xlink">
<g id="graph0" class="graph" transform="scale(1 1) rotate(0) translate(4 334)">
<title>round&#45;table</title>
<polygon fill="white" stroke="transparent" points="-4,4 -4,-334 372,-334 372,4 -4,4"/>
<!-- A -->
<g id="node1" class="node">
<title>A</title>
<ellipse fill="none" stroke="black" cx="184" cy="-312" rx="46.29" ry="18"/>
<text text-anchor="middle" x="184" y="-308.3" font-family="Times,serif" font-size="14.00">Начало</text>
</g>
<!-- B -->
<g id="node2" class="node">
<title>B</title>
<polygon fill="none" stroke="black" points="345,-258 23,-258 23,-220 345,-220 345,-258"/>
<text text-anchor="middle" x="184" y="-242.8" font-family="Times,serif" font-size="14.00">Исправление перспективы изображения </text>
<text text-anchor="middle" x="184" y="-227.8" font-family="Times,serif" font-size="14.00"> общего вида рабочей области</text>
</g>
<!-- A&#45;&gt;B -->
<g id="edge1" class="edge">
<title>A&#45;&gt;B</title>
<path fill="none" stroke="black" d="M184,-293.81C184,-286.11 184,-276.82 184,-268.15"/>
<polygon fill="black" stroke="black" points="187.5,-268.02 184,-258.02 180.5,-268.02 187.5,-268.02"/>
</g>
<!-- C -->
<g id="node3" class="node">
<title>C</title>
<polygon fill="none" stroke="black" points="355,-184 13,-184 13,-146 355,-146 355,-184"/>
<text text-anchor="middle" x="184" y="-168.8" font-family="Times,serif" font-size="14.00">Идентификация заготовки на изображении </text>
<text text-anchor="middle" x="184" y="-153.8" font-family="Times,serif" font-size="14.00"> общего вида рабочей области</text>
</g>
<!-- B&#45;&gt;C -->
<g id="edge2" class="edge">
<title>B&#45;&gt;C</title>
<path fill="none" stroke="black" d="M184,-219.83C184,-212.13 184,-202.97 184,-194.42"/>
<polygon fill="black" stroke="black" points="187.5,-194.41 184,-184.41 180.5,-194.41 187.5,-194.41"/>
</g>
<!-- D -->
<g id="node4" class="node">
<title>D</title>
<polygon fill="none" stroke="black" points="368,-110 0,-110 0,-72 368,-72 368,-110"/>
<text text-anchor="middle" x="184" y="-94.8" font-family="Times,serif" font-size="14.00">Уточнение координат угла заготовки печатной </text>
<text text-anchor="middle" x="184" y="-79.8" font-family="Times,serif" font-size="14.00"> платы по дополнительной камере</text>
</g>
<!-- C&#45;&gt;D -->
<g id="edge3" class="edge">
<title>C&#45;&gt;D</title>
<path fill="none" stroke="black" d="M184,-145.83C184,-138.13 184,-128.97 184,-120.42"/>
<polygon fill="black" stroke="black" points="187.5,-120.41 184,-110.41 180.5,-120.41 187.5,-120.41"/>
</g>
<!-- L -->
<g id="node5" class="node">
<title>L</title>
<ellipse fill="none" stroke="black" cx="184" cy="-18" rx="40.09" ry="18"/>
<text text-anchor="middle" x="184" y="-14.3" font-family="Times,serif" font-size="14.00">Конец</text>
</g>
<!-- D&#45;&gt;L -->
<g id="edge4" class="edge">
<title>D&#45;&gt;L</title>
<path fill="none" stroke="black" d="M184,-71.72C184,-63.97 184,-54.79 184,-46.27"/>
<polygon fill="black" stroke="black" points="187.5,-46 184,-36 180.5,-46 187.5,-46"/>
</g>
</g>
</svg>
